<svg id="Capa_1" enable-background="new 0 0 502 502" height="512" viewBox="0 0 502 502" width="512" xmlns="http://www.w3.org/2000/svg" xmlns:xlink="http://www.w3.org/1999/xlink"><linearGradient id="lg1"><stop offset="0" stop-color="#d4dbdb"/><stop offset="1" stop-color="#f3f3f3"/></linearGradient><linearGradient id="SVGID_1_" gradientUnits="userSpaceOnUse" x1="130.834" x2="42.072" xlink:href="#lg1" y1="412.001" y2="412.001"/><linearGradient id="SVGID_2_" gradientTransform="matrix(-1 0 0 1 3694 0)" gradientUnits="userSpaceOnUse" x1="3322.834" x2="3234.072" xlink:href="#lg1" y1="412.001" y2="412.001"/><linearGradient id="SVGID_3_" gradientUnits="userSpaceOnUse" x1="251" x2="251" xlink:href="#lg1" y1="250.161" y2="456.85"/><linearGradient id="lg2"><stop offset="0" stop-color="#74d2e8"/><stop offset="1" stop-color="#baeaf5"/></linearGradient><linearGradient id="SVGID_4_" gradientUnits="userSpaceOnUse" x1="251" x2="251" xlink:href="#lg2" y1="362.186" y2="494.737"/><linearGradient id="SVGID_5_" gradientUnits="userSpaceOnUse" x1="251" x2="251" xlink:href="#lg1" y1="475.213" y2="179.604"/><linearGradient id="lg3"><stop offset="0" stop-color="#4e5660"/><stop offset="1" stop-color="#64768d"/></linearGradient><linearGradient id="SVGID_6_" gradientUnits="userSpaceOnUse" x1="115.796" x2="34.042" xlink:href="#lg3" y1="191.625" y2="191.625"/><linearGradient id="SVGID_7_" gradientTransform="matrix(-1 0 0 1 460.775 0)" gradientUnits="userSpaceOnUse" x1="74.571" x2="-7.184" xlink:href="#lg3" y1="191.625" y2="191.625"/><linearGradient id="SVGID_8_" gradientUnits="userSpaceOnUse" x1="251" x2="251" xlink:href="#lg2" y1="280.921" y2="187.255"/><linearGradient id="SVGID_9_" gradientTransform="matrix(-1 0 0 1 460.775 0)" gradientUnits="userSpaceOnUse" x1="209.775" x2="209.775" y1="391.618" y2="210.416"><stop offset="0" stop-color="#53aae6"/><stop offset="1" stop-color="#a4d2f0"/></linearGradient><g><path d="m145.318 322.002c-71.133 11.973-116.07 79.385-126.905 147.996-2.654 16.801 10.335 32.002 27.345 32.002h36.057l116.425-179.998z" fill="url(#SVGID_1_)"/><path d="m356.682 322.002c71.133 11.973 116.07 79.385 126.905 147.996 2.654 16.801-10.335 32.002-27.345 32.002h-36.057l-116.425-179.998z" fill="url(#SVGID_2_)"/><path d="m420.186 502c0-114.656-75.747-207.603-169.186-207.603s-169.186 92.947-169.186 207.603z" fill="url(#SVGID_3_)"/><path d="m135.414 350.418c-7.171 8.236-13.76 17.224-19.677 26.871 40.043 22.636 86.636 34.792 135.263 34.792 23.773 0 47.059-2.91 69.334-8.524 9.386-2.366 14.802-12.18 11.694-21.346-2.772-8.176-11.364-12.806-19.733-10.69-19.447 4.919-40.014 7.56-61.294 7.56-42.448 0-82.055-10.506-115.587-28.663z" fill="#c2c8cf"/><path d="m226.319 340.183h49.362v161.817h-49.362z" fill="url(#SVGID_4_)"/><ellipse cx="251" cy="189.54" fill="url(#SVGID_5_)" rx="218.589" ry="189.54"/><path d="m275.681 411.03v-33.159c-8.103.79-16.335 1.21-24.681 1.21s-16.578-.42-24.681-1.21v33.159c8.153.698 16.388 1.051 24.681 1.051s16.528-.353 24.681-1.051z" fill="#71c4d1"/><path d="m40.742 155.214h70.751v72.822h-70.751c-11.146 0-20.182-9.036-20.182-20.182v-32.459c0-11.145 9.036-20.181 20.182-20.181z" fill="url(#SVGID_6_)"/><path d="m461.258 155.214h-70.751v72.822h70.751c11.146 0 20.182-9.036 20.182-20.182v-32.459c0-11.145-9.036-20.181-20.182-20.181z" fill="url(#SVGID_7_)"/><path d="m350.563 130.345h-199.126c-33.169 0-60.058 26.889-60.058 60.058 0 33.169 26.889 60.058 60.058 60.058h199.127c33.169 0 60.058-26.889 60.058-60.058-.001-33.169-26.89-60.058-60.059-60.058z" fill="url(#SVGID_8_)"/><g><ellipse cx="142.417" cy="220.805" fill="#efc5db" rx="18.454" ry="14.83"/><ellipse cx="359.583" cy="220.805" fill="#efc5db" rx="18.454" ry="14.83"/><circle cx="174.055" cy="184.212" fill="#fff" r="36.593"/><circle cx="327.946" cy="184.212" fill="#fff" r="36.593"/><g fill="#3b3b44"><g><circle cx="174.054" cy="184.212" r="21.81"/><circle cx="327.946" cy="184.212" r="21.81"/></g><path d="m251 220.782c-6.199 0-12.398-2.344-17.455-7.032-2.025-1.878-2.145-5.041-.267-7.066s5.042-2.143 7.066-.268c6.274 5.818 15.038 5.818 21.312 0 2.025-1.877 5.188-1.758 7.066.268 1.877 2.025 1.758 5.189-.267 7.066-5.057 4.689-11.256 7.032-17.455 7.032z"/></g></g><path d="m251 383.281c86.832 0 126.338-50.962 117.016-99.438s-85.765-92.219-117.016-92.219-107.694 43.743-117.016 92.219c-9.322 48.477 30.184 99.438 117.016 99.438z" fill="url(#SVGID_9_)"/><g fill="#0099cf"><path d="m282.078 271.958h-62.156c-6.351 0-11.5-5.148-11.5-11.5s5.149-11.5 11.5-11.5h62.156c6.351 0 11.5 5.148 11.5 11.5s-5.149 11.5-11.5 11.5z"/><path d="m295.454 332.267h-88.908c-6.351 0-11.5-5.148-11.5-11.5s5.149-11.5 11.5-11.5h88.908c6.351 0 11.5 5.148 11.5 11.5s-5.149 11.5-11.5 11.5z"/></g></g></svg>